<svg width="20" height="20" viewBox="0 0 20 20" fill="none" xmlns="http://www.w3.org/2000/svg">
<path d="M19.9484 4.38527C19.8582 3.93113 19.6568 3.51555 19.3756 3.17223C19.3163 3.09742 19.2544 3.03043 19.1872 2.96344C18.689 2.46273 17.9897 2.15039 17.2257 2.15039H2.77426C2.01031 2.15039 1.31352 2.46273 0.81293 2.96344C0.745938 3.03043 0.683984 3.09742 0.624531 3.17223C0.343164 3.51551 0.141797 3.93113 0.0541406 4.38527C0.018125 4.56055 0 4.74168 0 4.9248V15.0745C0 15.4639 0.0825781 15.8382 0.229844 16.1762C0.366445 16.4989 0.567852 16.7908 0.812891 17.0356C0.875 17.0976 0.93668 17.1545 1.00398 17.2112C1.48391 17.6086 2.1034 17.8487 2.77426 17.8487H17.2257C17.8968 17.8487 18.519 17.6086 18.9962 17.2087C19.0633 17.1545 19.1253 17.0976 19.1872 17.0356C19.4321 16.7908 19.6335 16.4989 19.7729 16.1762V16.1737C19.9202 15.8357 20 15.4639 20 15.0746V4.9248C20 4.74168 19.9821 4.56055 19.9484 4.38527ZM1.81676 3.96715C2.06461 3.71957 2.39746 3.56969 2.77426 3.56969H17.2257C17.6025 3.56969 17.9383 3.71957 18.1832 3.96715C18.2271 4.01125 18.2684 4.06039 18.3048 4.10922L10.7303 10.7106C10.5214 10.8937 10.2634 10.9841 10 10.9841C9.7393 10.9841 9.48141 10.8937 9.26973 10.7106L1.69813 4.10641C1.73164 4.05758 1.77293 4.01125 1.81676 3.96715ZM1.4193 15.0745V5.57512L6.9007 10.357L1.42207 15.1337C1.4193 15.1156 1.4193 15.0952 1.4193 15.0745ZM17.2257 16.4291H2.77426C2.52891 16.4291 2.29934 16.3646 2.1034 16.2513L7.88379 11.2138L8.42344 11.6833C8.87504 12.0757 9.44016 12.2745 10 12.2745C10.5627 12.2745 11.1278 12.0757 11.5794 11.6833L12.1187 11.2138L17.8969 16.2513C17.7007 16.3646 17.4711 16.4291 17.2257 16.4291ZM18.5807 15.0745C18.5807 15.0952 18.5807 15.1156 18.578 15.1337L13.0995 10.3597L18.5807 5.57766V15.0745Z" fill="#1FBECD"/>
</svg>
