<svg width="24" height="24" viewBox="0 0 24 24" fill="none" xmlns="http://www.w3.org/2000/svg">
<g id="direct 1" clip-path="url(#clip0_19_6921)">
<path id="Vector" d="M22.9842 0.0393793L0.532968 7.37555C-0.101085 7.58274 -0.192777 8.44518 0.384277 8.78069L8.8688 13.7143C9.13647 13.87 9.47102 13.8512 9.71953 13.6666L12.1046 11.8954L10.3334 14.2804C10.1488 14.529 10.13 14.8636 10.2856 15.1312L15.2192 23.6157C15.5551 24.1932 16.4174 24.1005 16.6244 23.467L23.9606 1.01581C24.1574 0.412969 23.5841 -0.156778 22.9842 0.0393793ZM15.6892 21.3437L11.8806 14.7939L16.4731 8.60989C16.7019 8.30167 16.6704 7.87233 16.399 7.60089C16.1276 7.32944 15.6981 7.29789 15.39 7.52676L9.20596 12.1193L2.6562 8.31067L22.0149 1.98499L15.6892 21.3437ZM8.12844 16.9663L2.98799 22.1067C2.68567 22.409 2.19547 22.4091 1.89315 22.1067C1.59079 21.8044 1.59079 21.3142 1.89315 21.0119L7.03361 15.8714C7.33602 15.5692 7.82622 15.5691 8.12844 15.8714C8.43081 16.1738 8.43081 16.664 8.12844 16.9663ZM1.33749 17.1608C1.03512 16.8584 1.03512 16.3683 1.33749 16.066L3.36584 14.0376C3.66815 13.7352 4.15835 13.7352 4.46067 14.0376C4.76304 14.3399 4.76304 14.8301 4.46067 15.1324L2.43232 17.1608C2.13005 17.4631 1.6398 17.4631 1.33749 17.1608ZM9.96233 19.5392C10.2647 19.8415 10.2647 20.3317 9.96233 20.634L7.93393 22.6624C7.78277 22.8136 7.58463 22.8891 7.38654 22.8891C6.70299 22.8891 6.35006 22.0566 6.83914 21.5675L8.86754 19.5392C9.16981 19.2368 9.66001 19.2368 9.96233 19.5392Z" fill="white"/>
</g>
<defs>
<clipPath id="clip0_19_6921">
<rect width="24" height="24" fill="white"/>
</clipPath>
</defs>
</svg>
